# xmcd
#
# Track frame offsets: 
#        150
#        19384
#        37315
#        62549
#        77921
#        100694
#        120261
#        151519
#        182099
#        206448
#        241543
#        277016
#
# Disc length: 3699 seconds
#
# Revision: 0
# Processed by: cddbd v1.5.2PL0 Copyright (c) Steve Scherf et al.
# Submitted via: ExactAudioCopyFreeDBPlugin 1.0
#
DISCID=920e710c
DTITLE=Erykah Badu - New Amerykah: Part One (4th World War)
DYEAR=2008
DGENRE=R&B
TTITLE0=Amerykah Promise
TTITLE1=The Healer
TTITLE2=Me
TTITLE3=My People
TTITLE4=Soldier
TTITLE5=The Cell
TTITLE6=Twinkle
TTITLE7=Master Teacher
TTITLE8=That Hump
TTITLE9=Telephone
TTITLE10=Honey (Bonus Track)
TTITLE11=h
EXTD=
EXTT0=
EXTT1=
EXTT2=
EXTT3=
EXTT4=
EXTT5=
EXTT6=
EXTT7=
EXTT8=
EXTT9=
EXTT10=
EXTT11=
PLAYORDER=
